<?xml version="1.0" encoding="utf-8"?>
<!-- Generator: Adobe Illustrator 17.0.0, SVG Export Plug-In . SVG Version: 6.00 Build 0)  -->
<!DOCTYPE svg PUBLIC "-//W3C//DTD SVG 1.1//EN" "http://www.w3.org/Graphics/SVG/1.1/DTD/svg11.dtd">
<svg version="1.1" id="Layer_1" xmlns="http://www.w3.org/2000/svg" xmlns:xlink="http://www.w3.org/1999/xlink" x="0px" y="0px"
	 width="262.348px" height="106.18px" viewBox="0 0 262.348 106.18" enable-background="new 0 0 262.348 106.18"
	 xml:space="preserve">
<g>
	<rect x="89.848" y="17.523" fill="#F80000" width="172.5" height="37.69"/>
	<g>
		<path fill="#FFFFFF" d="M119.195,46.528c-4.38,0-7.165-2.146-7.165-5.511c0-0.638,0.116-1.596,0.319-2.553l2.872-13.43h4.351
			l-2.988,14.01c-0.116,0.464-0.145,0.87-0.145,1.305c0,1.538,1.305,2.466,3.568,2.466c2.64,0,4.09-1.16,4.641-3.771l2.987-14.01
			h4.351L129,39.044C127.927,44.004,124.098,46.528,119.195,46.528z"/>
		<path fill="#FFFFFF" d="M146.254,46.18h-14.475l4.496-21.146h4.351l-3.713,17.52h10.124L146.254,46.18z"/>
		<path fill="#FFFFFF" d="M165.192,28.66h-6.149L155.3,46.18h-4.351l3.742-17.52h-6.44l0.783-3.626h16.94L165.192,28.66z"/>
		<path fill="#FFFFFF" d="M168.03,46.18h-4.352l4.496-21.146h4.352L168.03,46.18z"/>
		<path fill="#FFFFFF" d="M192.423,46.18h-4.119l3.828-17.955l-7.803,17.955h-4.554V28.225l-3.829,17.955h-4.119l4.496-21.146h6.875
			v16.244l7.367-16.244h6.353L192.423,46.18z"/>
		<path fill="#FFFFFF" d="M210.025,46.18l-0.522-4.264h-7.89l-2.35,4.264h-4.438l11.806-21.146h5.019l2.813,21.146H210.025z
			 M208.08,30.081l-4.467,8.208h5.482L208.08,30.081z"/>
		<path fill="#FFFFFF" d="M225.073,46.528c-4.815,0-7.803-2.088-7.803-5.714c0-0.406,0.028-0.696,0.116-1.276h4.234
			c-0.029,0.261-0.058,0.522-0.058,0.667c0,1.653,1.508,2.611,4.147,2.611c3.017,0,4.932-1.131,4.932-3.075
			c0-1.363-0.87-1.741-3.51-2.292l-2.843-0.58c-3.452-0.696-4.902-1.973-4.902-4.38c0-4.293,3.626-7.803,9.34-7.803
			c4.612,0,7.311,1.856,7.311,4.989c0,0.58-0.059,0.986-0.232,1.798h-4.061c0.028-0.261,0.058-0.522,0.058-0.667
			c0-1.566-1.363-2.408-3.829-2.408c-2.64,0-4.264,1.16-4.264,3.017c0,1.103,0.783,1.566,3.51,2.118l3.162,0.638
			c2.958,0.609,4.583,1.915,4.583,4.148C234.965,43.221,231.28,46.528,225.073,46.528z"/>
	</g>
	<g>
		<path fill="#231F20" d="M127.695,81.846h-4.293l-5.569-15.17l-3.22,15.17h-4.119l4.496-21.146h4.351l5.569,14.938l3.162-14.938
			h4.119L127.695,81.846z"/>
		<path fill="#231F20" d="M149.938,78.075c-2.524,2.959-5.25,4.119-8.963,4.119c-5.163,0-8.412-3.017-8.412-8.093
			c0-3.336,1.334-6.788,3.597-9.485c2.407-2.872,5.279-4.264,8.905-4.264c5.309,0,8.412,3.075,8.412,8.296
			C153.476,72.07,152.171,75.436,149.938,78.075z M144.513,64.065c-4.322,0-7.629,4.409-7.629,9.427
			c0,3.162,1.856,4.989,4.786,4.989c4.206,0,7.484-4.119,7.484-9.312C149.154,65.98,147.414,64.065,144.513,64.065z"/>
		<path fill="#231F20" d="M172.209,64.326h-6.149l-3.741,17.52h-4.352l3.742-17.52h-6.44l0.783-3.626h16.94L172.209,64.326z"/>
		<path fill="#231F20" d="M175.048,81.846h-4.352l4.496-21.146h4.352L175.048,81.846z"/>
		<path fill="#231F20" d="M188.07,82.194c-4.96,0-8.006-2.698-8.006-7.339c0-8.412,5.482-14.503,12.328-14.503
			c4.496,0,7.541,2.465,7.541,6.063c0,0.319-0.028,0.638-0.115,1.45h-4.091c0-2.668-1.421-3.8-3.828-3.8
			c-2.321,0-4.119,1.015-5.482,3.162c-1.306,2.031-2.03,4.409-2.03,6.787c0,3.047,1.479,4.468,4.293,4.468
			c2.784,0,4.786-1.189,5.627-3.858h4.148C197.179,79.584,193.35,82.194,188.07,82.194z"/>
		<path fill="#231F20" d="M204.048,81.846h-4.352l4.496-21.146h4.352L204.048,81.846z"/>
		<path fill="#231F20" d="M221.885,81.846l-0.522-4.264h-7.89l-2.35,4.264h-4.438L218.49,60.7h5.019l2.813,21.146H221.885z
			 M219.941,65.748l-4.467,8.208h5.482L219.941,65.748z"/>
		<path fill="#231F20" d="M236.934,82.194c-4.815,0-7.803-2.089-7.803-5.714c0-0.406,0.028-0.697,0.116-1.277h4.234
			c-0.029,0.262-0.058,0.522-0.058,0.668c0,1.652,1.508,2.61,4.147,2.61c3.017,0,4.932-1.132,4.932-3.075
			c0-1.363-0.87-1.74-3.51-2.291l-2.843-0.58c-3.452-0.696-4.902-1.973-4.902-4.38c0-4.293,3.626-7.803,9.34-7.803
			c4.612,0,7.311,1.856,7.311,4.989c0,0.58-0.059,0.986-0.232,1.798h-4.061c0.028-0.261,0.058-0.522,0.058-0.667
			c0-1.566-1.363-2.408-3.829-2.408c-2.64,0-4.264,1.16-4.264,3.017c0,1.103,0.783,1.566,3.51,2.118l3.162,0.639
			c2.958,0.608,4.583,1.914,4.583,4.147C246.825,78.888,243.141,82.194,236.934,82.194z"/>
	</g>
</g>
<circle fill="#424242" cx="49" cy="53.115" r="49"/>
<path fill="#BCBCBC" d="M31.349,60.346c0,0,0.554,4.525,3.417,3.417l9.881,23.824c0,0,1.57,2.586,4.894,1.108
	c3.324-1.477,10.158-4.986,10.158-4.986s1.847-1.939,0-4.986c-1.847-3.047-8.311-19.946-8.311-19.946s2.216-0.831,1.477-2.77
	c-0.739-1.939-4.063-4.894-4.063-4.894l-19.577,6.002L31.349,60.346z"/>
<path fill="#FFFFFF" d="M59.698,78.723c-1.847-3.047-8.311-19.946-8.311-19.946s2.216-0.831,1.477-2.77
	c-0.739-1.939-4.063-4.894-4.063-4.894l-19.577,6.002l0.695,1.058l12.787-3.92c0,0,3.324,2.955,4.063,4.894
	c0.739,1.939-1.477,2.77-1.477,2.77s6.464,16.899,8.311,19.946c1.57,2.591,0.473,4.376,0.108,4.854
	c2.99-1.469,5.986-3.007,5.986-3.007S61.545,81.77,59.698,78.723z"/>
<g>
	<g>
		<polygon fill="#BEBEBE" points="71.766,7.309 77.536,2.414 89.848,54.53 84.672,54.441 65.223,32.03 		"/>
		<path fill="#FFFFFF" d="M14.433,34.309c0,0-7.667,14,6.667,27.333c0,0,45-10.667,66-6.833c0,0-22-12.833-15.333-47.5
			c0,0-6.543,7.095-33.649,18.378C38.117,25.688,17.126,33.526,14.433,34.309z"/>
		<path fill="#BEBEBE" d="M77.447,44.849c-18.365-2.097-56.541,7.072-56.541,7.072l4.548,8.745
			c11.793-2.54,44.613-8.97,61.645-5.861C87.099,54.805,81.994,51.814,77.447,44.849z"/>
		<path fill="#BCBCBC" d="M53.67,86.716c0.365-0.478,1.462-2.263-0.108-4.854c-1.847-3.047-8.311-19.946-8.311-19.946
			s2.216-0.831,1.477-2.77c-0.739-1.939-4.063-4.894-4.063-4.894l-12.787,3.92l1.429,2.174c0,0,0.554,4.525,3.417,3.417
			l9.881,23.824c0,0,1.57,2.586,4.894,1.108L53.67,86.716z"/>
		<path fill="#F40400" d="M22.361,31.51c-3.766,1.373-6.981,2.523-7.929,2.799c0,0-7.667,14,6.667,27.333
			c0,0,3.132-0.742,8.126-1.764C15.93,47.107,21.238,33.891,22.361,31.51z"/>
		<path fill="#383838" d="M102.589,25.347c4.167,15.897,1.27,30.429-6.47,32.458s-17.394-9.213-21.561-25.11
			c-4.159-15.865-1.262-30.431,6.47-32.458C88.769-1.792,98.422,9.45,102.589,25.347z"/>
		<path fill="#1B1B1B" stroke="#5A5A5A" stroke-miterlimit="10" d="M101.879,25.533c3.94,15.03,1.62,28.659-5.181,30.442
			c-6.801,1.783-15.509-8.956-19.449-23.986C73.317,16.99,75.635,3.328,82.43,1.547C89.231-0.236,97.939,10.503,101.879,25.533z"/>
		<g>
			<path fill="#BCBCBC" d="M86.921,21.369l-11.333,1.25l2.35,12.141c0.895,2.82,1.955,5.451,3.13,7.836l11.094-5.176L86.921,21.369z
				"/>
			
				<ellipse transform="matrix(0.9481 -0.318 0.318 0.9481 -4.7587 29.918)" fill="#FFFFFF" cx="89.275" cy="29.537" rx="4.237" ry="8.496"/>
		</g>
		<path fill="none" stroke="#5A5A5A" stroke-miterlimit="10" d="M101.879,25.244c3.94,15.03,1.62,28.659-5.181,30.442
			C89.896,57.469,81.188,46.73,77.248,31.7C73.317,16.701,75.635,3.039,82.43,1.258C89.231-0.525,97.939,10.214,101.879,25.244z"/>
	</g>
</g>
</svg>
