<?xml version="1.0" encoding="utf-8"?>
<!-- Generator: Adobe Illustrator 17.0.0, SVG Export Plug-In . SVG Version: 6.00 Build 0)  -->
<!DOCTYPE svg PUBLIC "-//W3C//DTD SVG 1.1//EN" "http://www.w3.org/Graphics/SVG/1.1/DTD/svg11.dtd">
<svg version="1.1" id="Layer_1" xmlns="http://www.w3.org/2000/svg" xmlns:xlink="http://www.w3.org/1999/xlink" x="0px" y="0px"
	 width="249.287px" height="62.384px" viewBox="0 0 249.287 62.384" enable-background="new 0 0 249.287 62.384"
	 xml:space="preserve">
<g>
	<path d="M7.898,34.69l-0.373,1.044c-2.863-0.754-5.27-3.389-5.27-6.904c0-4.682,4.024-8.41,8.99-8.41c0.033,0,0.066,0,0.099,0
		V10.313c-1.092-1.255-2.212-2.076-3.31-2.076c-2.126,0-3.315,1.464-3.315,3.986l-1.43-0.356C3.152,11.2,3.085,10.52,3.085,9.84
		C3.085,4.43,7.266,0,12.419,0c5.43,0,7.412,3.887,9.406,7.243L39.75,37.251c0-8.197,0-16.394,0-24.591
		c-3.082-0.265-5.723-1.6-7.497-3.282l-2.848,3.181l-1.072-1.072l9.288-10.732l1.466,0.025c1.233,1.564,3.13,3.186,5.798,3.186
		c2.473,0,4.313-1.67,4.54-3.907l1.019,0.025c0.596,1.141,0.905,2.429,0.905,3.716c0,5.149-4.401,8.497-9.512,8.873v43.848h-2.819
		L14.04,14.212c-0.2-0.339-0.403-0.673-0.608-1.001v29.712c2.444,0.375,5.985,1.502,9.156,4.678l2.5-2.858l1.072,1.072l-9.61,10.706
		c-1.434-1.547-3.469-3.213-6.201-3.213c-2.139,0-3.817,1.341-3.817,3.474c0,2.539,2.382,4.353,4.973,4.088l-0.348,1.392
		C5.924,63.117,0,59.439,0,52.855C0,46.828,5.093,42.75,11.268,42.75c0.025,0,0.05,0,0.076,0V30.515c-0.267,0-0.533,0-0.799,0
		c-1.901,0-3.619,0.556-3.619,2.425C6.926,33.674,7.313,34.328,7.898,34.69z"/>
	<path d="M49.353,49.854l3.816-3.095c0-6.39,0-12.779,0-19.168l16.796-9.649l10.721,8.22v20.371L64.249,56.538l-10.482-7.575
		l-3.098,2.512L49.353,49.854z M71.396,50.819V29.376l-8.577-5.718v21.442L71.396,50.819z"/>
	<path d="M103.479,51.21l2.469-1.336l1.072,1.43l-10.262,5.309l-7.862-6.79l-2.859,1.787l-1.072-1.429l5.003-3.217V29.049
		c0-2.9-2.071-3.559-3.574-3.559v-1.072l12.151-12.181h1.429v8.574h8.864l-3.496,4.1h-5.368v22.767L103.479,51.21z"/>
	<path d="M133.114,49.39l-10.721,7.505l-7.147-6.433l-2.501,1.787l-1.072-1.429l4.646-3.216V27.947l-2.502-3.216l-2.859,1.787
		l-1.072-1.429l10.007-6.791l5.718,6.791v22.515l2.502,2.501l3.216-2.145L133.114,49.39z M121.051,1.987l6.354,7.237l-7.12,6.252
		l-6.355-7.237L121.051,1.987z"/>
	<path d="M145.625,43.549c2.222,4.08,6.271,5.093,8.425,5.145l4.3-3.106l0.969,1.305l-10.972,9.63h-1.044l-11.258-7.67V26.56
		l15.396-8.583l7.903,6.337l-7.083,5.368l-6.636-5.517V43.549z"/>
	<path d="M183.511,49.39l-10.722,7.505l-7.147-6.433l-2.502,1.787l-1.072-1.429l4.646-3.216V27.947l-2.502-3.216l-2.858,1.787
		l-1.072-1.429l10.006-6.791l5.719,6.791v22.515l2.501,2.501l3.217-2.145L183.511,49.39z M171.447,1.987l6.354,7.237l-7.121,6.252
		l-6.354-7.237L171.447,1.987z"/>
	<path d="M185.311,47.071c0-3.991,3.069-7.784,8.61-10.739c-3.431-1.483-6.084-3.641-6.084-7.086c0-3.28,2.453-5.152,4.657-6.302
		l8.22-4.289l11.002,7.096l3.01-2.441l1.314,1.622l-3.89,3.155v18.801l3.574,3.573l3.216-2.143l0.354,1.433l-10.378,7.127
		l-5.694-5.705l-7.868,5.721C190.63,56.28,185.311,52.644,185.311,47.071z M189.992,28.812c0,4.783,7.882,6.764,12.866,7.918
		c0-2.332,0-4.665,0-6.997l-8.799-5.419C191.864,25.482,189.992,26.849,189.992,28.812z M195.276,36.872
		c-0.492,0.729-0.947,2.002-0.947,3.421c0,4.23,2.352,10.177,6.981,10.177c0.524,0,1.048-0.08,1.548-0.237c0-3.761,0-7.522,0-11.283
		C200.484,38.406,197.753,37.78,195.276,36.872z"/>
	<path d="M221.145,53.452c0-3.094,1.222-5.825,7.075-11.262l-5.647-4.455V27.296l15.408-8.946c1.08,1.595,2.923,3.257,5.442,3.257
		c1.956,0,3.54-1.341,3.73-3.108l0.027,0.007c0-0.002,0.001-0.004,0.001-0.007h2.105c-0.581,5.693-2.3,9.934-6.501,13.81
		l6.422,4.755v11.257l-14.72,8.946c-1.005-1.782-2.877-3.487-5.521-3.487c-1.745,0-3.516,1.001-3.516,2.82
		c0,0.886,0.466,1.514,1.063,1.852l-0.728,1.956C223.215,59.413,221.145,56.952,221.145,53.452z M232.78,40.924
		c-2.645,2.271-5.297,4.481-7.121,6.754c1.412-1.119,3.233-1.784,5.225-1.784c4.268,0,7.331,2.705,8.707,5.731v-9.712l-4.132-3.291
		L232.78,40.924z M240.764,31.316c1.072-0.921,2.188-2.006,3.188-3.425c-1.137,0.497-2.409,0.765-3.743,0.765
		c-3.231,0-6.49-1.691-8.019-5.485v9.712l3.083,3.148L240.764,31.316z"/>
</g>
</svg>
